<svg viewBox="92.1 44.9 280.1 281.5" xmlns="http://www.w3.org/2000/svg"><path d="M225 45S109 61 94 164c-2 13-2 13 1 12l16-3 1-7A126 126 0 0 1 224 62c1 0 3-13 1-17m14 0c-1 0 0 18 3 18 0 0 93 6 113 112 0 0 17 5 17 1-3-34-32-121-133-131m-7 1c-4 0-6 111-14 119-7 7-124 15-124 20s118-2 126 5c8 8 7 136 11 136 5 0 4-131 11-137 9-8 130 0 130-6-1-5-120-9-130-18-9-8-6-119-10-119m-11 26c-85 6-100 97-99 98h12s17-79 86-84c0 0 3-14 1-14m22 13s66 10 88 84c1 3 12 1 12 1 6 0-7-81-100-98 0 0-2 9 0 13m-26 10s-62 16-69 73l59-10c2-2 15-56 10-63m29 6c1 3 3 58 7 59 7 1 19 2 19 0 0 0-14-31-2-25 5 3 17 31 17 31 2 1 37 11 35 1-15-55-82-89-76-66m126 87c-7-2-17 3-17 3 2 18-23 103-111 117-4 1-6 19-3 18 121-15 131-138 131-138m-277 5c-2 0 5 111 129 133 0 0 3-18-3-19-99-16-110-112-110-112zm29 0c-2 2 4 19 5 17 0 0 4 0 9-6s6-10 6-10c0-2-7-2-10-2zm208 6-5 14c-2 0-14-14-17-14l-16 1c-5 2 25 32 24 33-24 46-67 47-73 51-3 2-5 15 0 15 89-16 100-99 100-99 0-2-13-1-13-1m-184-1c-5 13-19 16-18 16 13 73 91 85 91 82 0 0 3-11-3-12-8-1-14-4-15-10-1-5 16-43 16-45 0-3-2-31-4-27 0 0-29 48-36 47-5 0 29-52 27-52h-21c-2 0-24 35-30 32-4-2 21-33 21-33-8-1-25-6-28 2m129 4c-8-4-26-2-26-2s-8 70-4 73c2 1 33-11 43-19 0 0 16-11 15-15-3-10-28-37-28-37"/></svg>